<svg xmlns="http://www.w3.org/2000/svg" xmlns:xlink="http://www.w3.org/1999/xlink" width="1364" height="502" overflow="hidden"><defs><clipPath id="clip0"><rect width="1364" height="502" x="303" y="256"/></clipPath></defs><g clip-path="url(#clip0)" transform="translate(-303 -256)"><rect width="879" height="154" x="605.5" y="386.5" fill="#262626" stroke="#92D050" stroke-linejoin="round" stroke-miterlimit="10" stroke-width="1.333"/><rect width="176" height="496" x="1484.5" y="257.5" fill="#262626" stroke="#92D050" stroke-linejoin="round" stroke-miterlimit="10" stroke-width="1.333"/><rect width="1180" height="182" x="304.5" y="540.5" fill="#262626" stroke="#92D050" stroke-linejoin="round" stroke-miterlimit="10" stroke-width="1.333"/><text fill="#FFF" font-family="Trebuchet MS,Trebuchet MS_MSFontService,sans-serif" font-size="35" font-weight="400" transform="translate(1505.31 300)">Joint net<tspan x="-663.494" y="120" font-size="35">Transcript prediction net</tspan><tspan x="-619.897" y="410" font-size="35">Audio encoding net</tspan></text><path fill="none" fill-rule="evenodd" stroke="#C5C5C5" stroke-linejoin="round" stroke-miterlimit="10" stroke-width="2.667" d="M639.338 588.3 589.5 588.3"/><path fill="none" fill-rule="evenodd" stroke="#C5C5C5" stroke-linejoin="round" stroke-miterlimit="10" stroke-width="2.667" d="M938.338 588.3 888.5 588.3"/><path fill="none" fill-rule="evenodd" stroke="#A5A5A5" stroke-linejoin="round" stroke-miterlimit="10" stroke-width="2.667" d="M1237.34 588.3 1187.5 588.3"/><path fill="none" fill-rule="evenodd" stroke="#7C7C7C" stroke-linejoin="round" stroke-miterlimit="10" stroke-width="2.667" d="M1536.34 540.5 1511.42 540.5 1511.42 587.983 1486.5 587.983"/><path fill="none" fill-rule="evenodd" stroke="#C5C5C5" stroke-linejoin="round" stroke-miterlimit="10" stroke-width="2.667" d="M938.338 493.3 888.5 493.3"/><path fill="none" fill-rule="evenodd" stroke="#A5A5A5" stroke-linejoin="round" stroke-miterlimit="10" stroke-width="2.667" d="M1237.34 493.3 1187.5 493.3"/><path fill="none" fill-rule="evenodd" stroke="#7C7C7C" stroke-linejoin="round" stroke-miterlimit="10" stroke-width="2.667" d="M1536.34 540.983 1511.42 540.983 1511.42 493.5 1486.5 493.5"/><rect width="76" height="400" x="1536.5" y="340.5" fill="#494949" stroke="#FFF" stroke-linejoin="round" stroke-miterlimit="10" stroke-width="2.667"/><text fill="#FFF" font-family="Trebuchet MS,Trebuchet MS_MSFontService,sans-serif" font-size="41" font-weight="400" transform="matrix(6.12323e-17 1 -1 6.12323e-17 1561.41 347)">ReLU + FC 512<tspan x="263" y="0" font-size="41">-</tspan><tspan x="278" y="0" font-size="41">&gt;</tspan><tspan x="300" y="0" font-size="41">1024</tspan></text><rect width="249" height="76" x="1237.5" y="455.5" fill="#545454" stroke="#FFF" stroke-linejoin="round" stroke-miterlimit="10" stroke-width="2.667"/><text fill="#FFF" font-family="Trebuchet MS,Trebuchet MS_MSFontService,sans-serif" font-size="35" font-weight="400" transform="translate(1266.71 503)">FC 512-<tspan x="116.64" y="0" font-size="35">&gt;512</tspan></text><rect width="249" height="76" x="938.5" y="455.5" fill="#616161" stroke="#FFF" stroke-linejoin="round" stroke-miterlimit="10" stroke-width="2.667"/><text fill="#FFF" font-family="Trebuchet MS,Trebuchet MS_MSFontService,sans-serif" font-size="35" font-weight="400" transform="translate(967.399 503)">2x LSTM 512</text><rect width="249" height="76" x="639.5" y="455.5" fill="#A5A5A5" stroke="#FFF" stroke-linejoin="round" stroke-miterlimit="10" stroke-width="2.667"/><text fill="#FFF" font-family="Trebuchet MS,Trebuchet MS_MSFontService,sans-serif" font-size="35" font-weight="400" transform="translate(646.2 485)">Embeding <tspan x="161.547" y="0" font-size="35">1023</tspan><tspan x="74.413" y="36" font-size="35">-</tspan><tspan x="87.14" y="36" font-size="35">&gt; 512</tspan></text><rect width="249" height="76" x="1237.5" y="549.5" fill="#545454" stroke="#FFF" stroke-linejoin="round" stroke-miterlimit="10" stroke-width="2.667"/><text fill="#FFF" font-family="Trebuchet MS,Trebuchet MS_MSFontService,sans-serif" font-size="35" font-weight="400" transform="translate(1257.62 598)">FC 1024<tspan x="122.093" y="0" font-size="35">-</tspan><tspan x="134.82" y="0" font-size="35">&gt;512</tspan></text><rect width="249" height="76" x="938.5" y="549.5" fill="#616161" stroke="#FFF" stroke-linejoin="round" stroke-miterlimit="10" stroke-width="2.667"/><text fill="#FFF" font-family="Trebuchet MS,Trebuchet MS_MSFontService,sans-serif" font-size="35" font-weight="400" transform="translate(958.309 598)">3x LSTM 1024</text><rect width="249" height="76" x="639.5" y="549.5" fill="#A5A5A5" stroke="#FFF" stroke-linejoin="round" stroke-miterlimit="10" stroke-width="2.667"/><text fill="#FFF" font-family="Trebuchet MS,Trebuchet MS_MSFontService,sans-serif" font-size="35" font-weight="400" transform="translate(693.65 580)">2x stack,<tspan x="-28.967" y="36" font-size="35">2x subsample</tspan></text><rect width="249" height="76" x="340.5" y="549.5" fill="#616161" stroke="#FFF" stroke-linejoin="round" stroke-miterlimit="10" stroke-width="2.667"/><text fill="#FFF" font-family="Trebuchet MS,Trebuchet MS_MSFontService,sans-serif" font-size="35" font-weight="400" transform="translate(360.25 598)">2x LSTM 1024</text></g></svg>